<!--?xml version="1.0" standalone="no"?-->
              <svg id="sw-js-blob-svg" viewBox="0 0 100 100" xmlns="http://www.w3.org/2000/svg" version="1.1">
                    <defs> 
                        <linearGradient id="sw-gradient" x1="0" x2="1" y1="1" y2="0">
                            <stop id="stop1" stop-color="rgba(248, 117, 55, 1)" offset="0%"></stop>
                            <stop id="stop2" stop-color="rgba(251, 168, 31, 1)" offset="100%"></stop>
                        </linearGradient>
                    </defs>
                <path fill="url(#sw-gradient)" d="M24.5,-28.5C31.3,-23.4,36.2,-15.3,36.7,-7.2C37.3,0.8,33.4,8.9,28.9,16.6C24.4,24.3,19.3,31.6,12.4,34.2C5.5,36.7,-3.1,34.5,-12,31.8C-21,29.1,-30.2,25.9,-35.8,19.2C-41.5,12.5,-43.6,2.2,-41.1,-6.3C-38.5,-14.8,-31.1,-21.6,-23.5,-26.5C-15.9,-31.5,-7.9,-34.6,0.4,-35.1C8.8,-35.6,17.6,-33.5,24.5,-28.5Z" width="100%" height="100%" transform="translate(50 50)" stroke-width="0" style="transition: all 0.3s ease 0s;"></path>
              </svg>